<svg xmlns="http://www.w3.org/2000/svg" width="399" height="117" fill="none" viewBox="0 0 399 117">
  <defs>
    
    <linearGradient id="hexOuterLeft" gradientUnits="userSpaceOnUse" x1="5" y1="1" x2="15" y2="113">
      <stop offset="0%" stop-color="#b9a8fc"></stop>
      <stop offset="15%" stop-color="#c4b5fd"></stop>
      <stop offset="25%" stop-color="#a78bfa"></stop>
      <stop offset="25%" stop-color="#818cf8"></stop>
      <stop offset="50%" stop-color="#3730a3"></stop>
      <stop offset="100%" stop-color="#1e1b4b"></stop>
    </linearGradient>
    <linearGradient id="hexOuterRight" gradientUnits="userSpaceOnUse" x1="52" y1="1" x2="99" y2="113">
      <stop offset="0%" stop-color="#c4b5fd"></stop>
      <stop offset="25%" stop-color="#7c3aed"></stop>
      <stop offset="50%" stop-color="#0e7490"></stop>
      <stop offset="100%" stop-color="#011510"></stop>
    </linearGradient>
    <linearGradient id="hexTopBand" gradientUnits="userSpaceOnUse" x1="10" y1="5" x2="93" y2="40">
      <stop offset="0%" stop-color="#c4b5fd"></stop>
      <stop offset="20%" stop-color="#ddd6fe"></stop>
      <stop offset="100%" stop-color="#7c3aed"></stop>
    </linearGradient>
    <linearGradient id="hexLeft" gradientUnits="userSpaceOnUse" x1="5" y1="29" x2="52" y2="113">
      <stop offset="0%" stop-color="#818cf8"></stop>
      <stop offset="45%" stop-color="#3730a3"></stop>
      <stop offset="100%" stop-color="#1e1b4b"></stop>
    </linearGradient>
    <linearGradient id="hexRight" gradientUnits="userSpaceOnUse" x1="52" y1="29" x2="99" y2="113">
      <stop offset="0%" stop-color="#1a9ab8"></stop>
      <stop offset="50%" stop-color="#0a4a5e"></stop>
      <stop offset="100%" stop-color="#031018"></stop>
    </linearGradient>
    <linearGradient id="hexRightSmall" gradientUnits="userSpaceOnUse" x1="65" y1="45" x2="95" y2="105">
      <stop offset="0%" stop-color="#0e7490"></stop>
      <stop offset="40%" stop-color="#064e63"></stop>
      <stop offset="100%" stop-color="#011018"></stop>
    </linearGradient>
    <filter id="hexGlow" x="-20%" y="-20%" width="140%" height="140%">
      <feGaussianBlur stdDeviation="2.5" result="blur"></feGaussianBlur>
      <feMerge><feMergeNode in="blur"></feMergeNode><feMergeNode in="SourceGraphic"></feMergeNode></feMerge>
    </filter>
    <linearGradient id="textGrad" x1="0" y1="0" x2="1" y2="0">
      <stop offset="0%" stop-color="#c4b5fd"></stop>
      <stop offset="60%" stop-color="#B3DDE1"></stop>
      <stop offset="100%" stop-color="#6BA8AE"></stop>
    </linearGradient>
    <radialGradient id="specular" cx="30%" cy="35%" r="50%">
      <stop offset="0%" stop-color="#ffffff" stop-opacity="0.55"></stop>
      <stop offset="40%" stop-color="#ffffff" stop-opacity="0.15"></stop>
      <stop offset="100%" stop-color="#ffffff" stop-opacity="0"></stop>
    </radialGradient>
    <filter id="aoBlur" x="-50%" y="-50%" width="200%" height="200%">
      <feGaussianBlur stdDeviation="1.2"></feGaussianBlur>
    </filter>
  </defs>
  <clipPath id="clipLeft"><rect x="0" y="0" width="52" height="117"></rect></clipPath>
  <clipPath id="clipRight"><rect x="52" y="0" width="52" height="117"></rect></clipPath>
  <path fill="url(#hexOuterLeft)" filter="url(#hexGlow)" clip-path="url(#clipLeft)" d="M50.612 116.029c-1.852 0-3.58-.494-5.184-1.481L4.573 88.875c-2.962-1.852-4.69-5.184-4.567-8.64l1.728-48.26c.124-3.457 2.098-6.666 5.184-8.27L49.624 1.117a9.826 9.826 0 0 1 9.751.37l40.855 25.674c2.962 1.851 4.69 5.184 4.567 8.64l-1.728 48.26c-.124 3.456-2.099 6.665-5.184 8.27l-42.707 22.587c-1.357.741-2.962 1.111-4.566 1.111zm3.58-112.32c-.988 0-1.976.247-2.84.741L8.646 27.037c-1.851.988-3.209 2.963-3.209 5.184l-1.728 48.26c-.123 2.222.987 4.197 2.839 5.431l40.855 25.674c1.851 1.11 4.196 1.234 6.047.246l42.707-22.587c1.851-.987 3.209-2.962 3.209-5.184l1.728-48.26c.123-2.222-.988-4.197-2.84-5.431L57.4 4.697c-.987-.617-2.098-.988-3.209-.988z"></path>
  <path fill="url(#hexOuterRight)" filter="url(#hexGlow)" clip-path="url(#clipRight)" d="M50.612 116.029c-1.852 0-3.58-.494-5.184-1.481L4.573 88.875c-2.962-1.852-4.69-5.184-4.567-8.64l1.728-48.26c.124-3.457 2.098-6.666 5.184-8.27L49.624 1.117a9.826 9.826 0 0 1 9.751.37l40.855 25.674c2.962 1.851 4.69 5.184 4.567 8.64l-1.728 48.26c-.124 3.456-2.099 6.665-5.184 8.27l-42.707 22.587c-1.357.741-2.962 1.111-4.566 1.111zm3.58-112.32c-.988 0-1.976.247-2.84.741L8.646 27.037c-1.851.988-3.209 2.963-3.209 5.184l-1.728 48.26c-.123 2.222.987 4.197 2.839 5.431l40.855 25.674c1.851 1.11 4.196 1.234 6.047.246l42.707-22.587c1.851-.987 3.209-2.962 3.209-5.184l1.728-48.26c.123-2.222-.988-4.197-2.84-5.431L57.4 4.697c-.987-.617-2.098-.988-3.209-.988z"></path>
  <path fill="url(#specular)" d="m12.843 32.345 36.534 22.34c.864.494 1.975.617 2.84.124L92.453 35.43c2.221-.988 1.48-4.32-.988-4.444L13.83 28.52c-1.975-.124-2.715 2.715-.987 3.826z"></path>
  <path fill="url(#specular)" d="M80.975 24.198 55.302 8.523c-.617-.37-1.358-.37-1.975-.123L25.185 22.1c-1.48.74-.987 2.962.617 3.086l54.432 1.728c1.481 0 1.975-1.852.74-2.716z"></path>
  <path fill="url(#hexTopBand)" d="m12.843 32.345 36.534 22.34c.864.494 1.975.617 2.84.124L92.453 35.43c2.221-.988 1.48-4.32-.988-4.444L13.83 28.52c-1.975-.124-2.715 2.715-.987 3.826z"></path>
  <path fill="url(#hexTopBand)" d="M80.975 24.198 55.302 8.523c-.617-.37-1.358-.37-1.975-.123L25.185 22.1c-1.48.74-.987 2.962.617 3.086l54.432 1.728c1.481 0 1.975-1.852.74-2.716z"></path>
  <path fill="url(#hexRightSmall)" d="m67.151 100.477 26.66-14.195c.618-.37.988-.987 1.111-1.727l2.716-31.475c.123-1.728-2.099-2.468-2.963-.987L65.3 98.378c-.864 1.358.493 2.839 1.851 2.099z"></path>
  <path fill="url(#hexRight)" d="M94.305 38.64 53.574 58.634c-.987.493-1.605 1.48-1.728 2.592l-1.605 45.051c-.123 2.098 2.592 2.962 3.827 1.234l42.706-66.034c.987-1.728-.74-3.703-2.469-2.839z"></path>
  <path fill="url(#hexLeft)" d="M46.662 80.234l1.482-18.884c.123-1.605-.618-3.086-1.975-3.826L26.914 46.045c-1.975-1.11-4.197.987-3.086 3.086l18.638 32.09c1.11 1.852 3.95 1.112 4.196-.987z"></path>
  <path fill="url(#hexLeft)" d="M7.905 36.911l-.987 41.225c0 2.222 1.11 4.32 2.962 5.554l32.338 20.366c3.58 2.098 7.53-1.851 5.431-5.43l-36.164-62.58c-.988-1.728-3.456-.987-3.58.864z"></path>
  <line x1="13" y1="32" x2="52" y2="57" stroke="rgba(0,0,0,0.5)" stroke-width="2.5" stroke-linecap="round" filter="url(#aoBlur)"></line>
  <line x1="92" y1="35" x2="52" y2="57" stroke="rgba(0,0,0,0.4)" stroke-width="2" stroke-linecap="round" filter="url(#aoBlur)"></line>
  <line x1="52" y1="57" x2="52" y2="113" stroke="rgba(0,0,0,0.45)" stroke-width="2" stroke-linecap="round" filter="url(#aoBlur)"></line>
  <path fill="url(#textGrad)" d="M144.83 93.073v-23.92h4.44v23.92h-4.44zm-12.38-23.92v23.92h-4.44v-23.92h4.44zm12.72 9.87v3.8h-13.09v-3.8h13.09zm26.96 14.39c-3.28 0-5.85-.923-7.71-2.77-1.854-1.84-2.78-4.503-2.78-7.99v-13.5h4.44v13.33c0 2.46.53 4.247 1.59 5.36 1.06 1.12 2.556 1.68 4.49 1.68 1.94 0 3.433-.56 4.48-1.68 1.046-1.113 1.57-2.9 1.57-5.36v-13.33h4.38v13.5c0 3.487-.93 6.15-2.79 7.99-1.854 1.847-4.41 2.77-7.67 2.77zm34.72-.34h-11.89v-23.92h11.21c2.866 0 5.053.564 6.56 1.69 1.5 1.127 2.25 2.637 2.25 4.53 0 1.274-.297 2.36-.89 3.26a5.91 5.91 0 0 1-2.37 2.09 7.24 7.24 0 0 1-3.23.73l.62-1.23c1.34 0 2.546.247 3.62.74 1.066.487 1.913 1.197 2.54 2.13.626.934.94 2.097.94 3.49 0 2.047-.784 3.64-2.35 4.78-1.574 1.14-3.91 1.71-7.01 1.71zm-7.45-20.44v16.95h7.18c1.66 0 2.933-.273 3.82-.82.893-.546 1.34-1.423 1.34-2.63 0-1.18-.447-2.05-1.34-2.61-.887-.56-2.16-.84-3.82-.84h-7.52v-3.45h6.63c1.546 0 2.736-.273 3.57-.82.833-.546 1.25-1.366 1.25-2.46 0-1.12-.417-1.953-1.25-2.5-.834-.546-2.024-.82-3.57-.82h-6.29zM131.63 56.97h-3.62V22.8h3.62v34.17zm23.52 0h-3.61V22.8h2.98l23.57 29.68h-1.56V22.8h3.56v34.17h-2.97l-23.53-29.68h1.56v29.68zm55.11 0h-3.61V25.92h-12.01V22.8h27.63v3.12h-12.01v31.05zm29.77-15.82v-3.07h18.06v3.07h-18.06zm.39-15.23v27.92h20.55v3.13h-24.16V22.8h23.43v3.12h-19.82zm52.82 31.34c-2.607 0-5.007-.43-7.2-1.29-2.2-.867-4.104-2.08-5.71-3.64a16.515 16.515 0 0 1-3.76-5.51c-.894-2.12-1.34-4.434-1.34-6.94 0-2.5.446-4.81 1.34-6.93a16.378 16.378 0 0 1 3.78-5.51c1.626-1.56 3.54-2.774 5.74-3.64 2.193-.86 4.593-1.29 7.2-1.29 2.6 0 4.983.406 7.15 1.22 2.16.813 4.006 2.05 5.54 3.71l-2.25 2.29c-1.434-1.434-3.01-2.457-4.73-3.07-1.727-.62-3.584-.93-5.57-.93-2.114 0-4.057.35-5.83 1.05a13.85 13.85 0 0 0-4.64 2.98 13.752 13.752 0 0 0-3.07 4.49c-.734 1.706-1.1 3.583-1.1 5.63 0 2.02.366 3.893 1.1 5.62a13.837 13.837 0 0 0 3.07 4.51 13.856 13.856 0 0 0 4.64 2.98c1.773.7 3.7 1.05 5.78 1.05 1.953 0 3.8-.294 5.54-.88 1.74-.587 3.343-1.58 4.81-2.98l2.05 2.74c-1.627 1.426-3.53 2.506-5.71 3.24a21.28 21.28 0 0 1-6.83 1.1zm12.54-4.34-3.46-.44v-12.6h3.46v13.04zm22.6 4.05h-3.61V22.8h12.79c2.893 0 5.38.463 7.46 1.39 2.086.926 3.69 2.26 4.81 4 1.126 1.746 1.69 3.856 1.69 6.33 0 2.406-.564 4.48-1.69 6.22-1.12 1.74-2.724 3.073-4.81 4-2.08.926-4.567 1.39-7.46 1.39h-10.79l1.61-1.66v12.5zm23.67 0h-3.95l-8.79-12.4h3.91l8.83 12.4zm-23.67-32.75v20.55l-1.61-1.71h10.69c3.413 0 6.006-.75 7.78-2.25 1.773-1.494 2.66-3.59 2.66-6.29 0-2.734-.887-4.85-2.66-6.35-1.774-1.5-4.367-2.25-7.78-2.25h-10.69l1.61-1.7zm38.76 32.75h-3.76L379 22.8h3.56l15.62 34.17h-3.81L380.02 24.9h1.47l-14.35 32.07zm24.4-9.13h-22.01l1.07-2.93h19.87l1.07 2.93z"></path>
</svg>