<svg xmlns="http://www.w3.org/2000/svg" viewBox="0 0 600 20" fill="none" stroke="#363A4F" stroke-width="1.5" stroke-linecap="round">
  <path d="M0 10 L120 10"></path>
  <path d="M120 10 C140 10 145 4 160 4 C175 4 180 16 200 16 C220 16 225 4 240 4"></path>
  <circle cx="160" cy="4" r="1.5" fill="#C084FC" stroke="none"></circle>
  <circle cx="200" cy="16" r="1.5" fill="#C084FC" stroke="none"></circle>
  <circle cx="240" cy="4" r="1.5" fill="#C084FC" stroke="none"></circle>
  <path d="M240 4 L290 10 L350 10"></path>
  <path d="M350 10 C370 10 375 16 390 16 C405 16 410 4 430 4 C450 4 455 16 470 16"></path>
  <circle cx="390" cy="16" r="1.5" fill="#C084FC" stroke="none"></circle>
  <circle cx="430" cy="4" r="1.5" fill="#C084FC" stroke="none"></circle>
  <circle cx="470" cy="16" r="1.5" fill="#C084FC" stroke="none"></circle>
  <path d="M470 16 L600 10"></path>
  <circle cx="300" cy="10" r="3" fill="#0B0D14" stroke="#C084FC"></circle>
</svg>